<?xml version="1.0" encoding="UTF-8"?><svg id="_レイヤー_2" xmlns="http://www.w3.org/2000/svg" viewBox="0 0 19.5 19.5"><defs><style>.cls-1{fill:#dc0064;stroke-width:0px;}</style></defs><g id="design"><path class="cls-1" d="M9.75,1.62c4.48,0,8.12,3.65,8.12,8.12s-3.64,8.12-8.12,8.12S1.62,14.23,1.62,9.75,5.27,1.62,9.75,1.62M9.75,0C4.37,0,0,4.37,0,9.75s4.37,9.75,9.75,9.75,9.75-4.37,9.75-9.75S15.13,0,9.75,0h0Z"/><path class="cls-1" d="M9.75,5.28c2.46,0,4.47,2,4.47,4.47s-2,4.47-4.47,4.47-4.47-2-4.47-4.47,2-4.47,4.47-4.47M9.75,3.66c-3.37,0-6.09,2.73-6.09,6.09s2.73,6.09,6.09,6.09,6.09-2.73,6.09-6.09-2.73-6.09-6.09-6.09h0Z"/></g></svg>